<?xml version="1.0" encoding="UTF-8"?><svg xmlns:xlink="http://www.w3.org/1999/xlink" xmlns="http://www.w3.org/2000/svg" version="1.1" viewBox="0 0 300 300" height="40" width="40"><title>avatar-1</title><defs><linearGradient id="linearGradient-3" y2="270.915354%" x2="54.5474505%" y1="-908.241217%" x1="26.9931565%"><stop offset="0%" stop-color="#9DA764"/><stop offset="100%" stop-color="#B39E3E"/></linearGradient><linearGradient id="linearGradient-4" y2="91.3054435%" x2="51.1157712%" y1="-522.995072%" x1="35.0583639%"><stop offset="0%" stop-color="#ACB96D"/><stop offset="100%" stop-color="#A39A50"/></linearGradient></defs><g fill-rule="evenodd" fill="none" stroke-width="1" stroke="none" id="Elements"><g transform="translate(-80.000000, -530.000000)" id="Avatars---Default-Set"><g transform="translate(80.000000, 530.000000)" id="avatar-1"><mask fill="white" id="mask-2"><polygon points="0 0 300 0 300 300 0 300" id="path-1"/></mask><polygon points="241.232262 109.618286 163.044235 102.485 241.232262 133.428382" mask="url(#mask-2)" fill="#B184C0" id="Fill-611"/><polygon points="100.114286 -10.8744828 52.8280519 -10.8744828 7.4212987 179.789793 124.542857 108.155586" mask="url(#mask-2)" fill="#4A3F86" id="Fill-626"/><polygon points="168.898738 96 118.2503 -4.01862981 100.571987 -2.69196429 122.478171 108" mask="url(#mask-2)" fill="#7265B9" id="Fill-629"/><polygon points="122.478171 108 241.232262 133.428382 168.898738 96" mask="url(#mask-2)" fill="#B184C0" id="Fill-632"/><polygon points="0.21 191.332667 5.912 176.246889 0.21 150.241111" mask="url(#mask-2)" fill="url(#linearGradient-3)" id="Fill-659"/><polygon points="250.235077 24.89 241.232262 109.618286 365.281154 172.41" mask="url(#mask-2)" fill="#6E407E" id="Fill-695"/><polygon points="199.698585 -10.9233333 114.618146 -10.9233333 168.898738 96 244.931122 26.8455" mask="url(#mask-2)" fill="#4A3F86" id="Fill-704"/><polygon points="207.990015 -3.01904297 244.931122 28.0378418 252.874435 29.21712 239.655353 -3.01904297" mask="url(#mask-2)" fill="#B184C0" id="Fill-707"/><polygon points="252.874435 29.21712 307.152832 98.65 307.152832 -3.01904297 270.534668 -3.01904297" mask="url(#mask-2)" fill="#60336F" id="Fill-707"/><polygon points="243.84375 27.1977539 168.898738 96 185.674072 106.104492 241.232262 109.618286 252.874435 29.21712" mask="url(#mask-2)" fill="#7E528D" id="Fill-710"/><polygon points="234.670174 -10.8576 252.874435 29.21712 274.809391 -10.8576" mask="url(#mask-2)" fill="#B184C0" id="Fill-713"/><polygon points="304.418571 141.0255 241.232262 109.618286 311.241887 170.786889" mask="url(#mask-2)" fill="#3F2A62" id="Fill-737"/><polygon points="239.655353 133.428382 335.778098 191.262857 241.232262 109.618286" mask="url(#mask-2)" fill="#B184C0" id="Fill-746"/><polygon points="122.478171 108 10.3016827 177.566106 31.9912861 306.646457" mask="url(#mask-2)" fill="#291F63" id="Fill-752"/><polygon points="241.232262 133.428382 122.478171 108 26.4435 315.148353" mask="url(#mask-2)" fill="#7E528D" id="Fill-755"/><polygon points="-6.672 300 35.2302857 307.144621 10.1348571 175.384759 -6.672 191.262857" mask="url(#mask-2)" fill="#60336F" id="Fill-761"/><polygon points="0.21 142.7325 5.912 167.8095 0.21 114.2415" mask="url(#mask-2)" fill="url(#linearGradient-4)" id="Fill-764"/><polygon points="-6.672 189.023438 10.3016827 179.789793 51.3925781 -4.01862981 -6.672 -4.01862981" mask="url(#mask-2)" fill="#291F63" id="Fill-767"/><polygon points="304.418571 303.521676 241.232262 133.428382 36.8855357 305.904378" mask="url(#mask-2)" fill="#321E53" id="Fill-779"/><polygon points="301.40223 305.080964 335.778098 189.847091 241.232262 133.428382" mask="url(#mask-2)" fill="#7E528D" id="Fill-785"/></g></g></g></svg>